# xmcd
#
# Track frame offsets: 
#        150
#        12424
#        28585
#        42545
#        56146
#        67014
#        80740
#        96255
#        109201
#        124481
#        139601
#
# Disc length: 2064 seconds
#
# Revision: 1
# Processed by: cddbd v1.5.2PL0 Copyright (c) Steve Scherf et al.
# Submitted via: ExactAudioCopy v0.99pb5
#
DISCID=a4080e0b
DTITLE=Sony Holland - On A San Francisco High
DYEAR=2003
DGENRE=Jazz
TTITLE0=Chestnut Street
TTITLE1=My Man And I
TTITLE2=The Liberal Ladies Of San Mateo
TTITLE3=On A San Francisco High
TTITLE4=In Marin
TTITLE5=Lovely To Be Lonely
TTITLE6=To Better Days
TTITLE7=Whirlwind Romance
TTITLE8=The Trouble Is
TTITLE9=That's New
TTITLE10=Somewhere Near St. Louis
EXTD=YEAR: 2003
EXTT0=
EXTT1=
EXTT2=
EXTT3=
EXTT4=
EXTT5=
EXTT6=
EXTT7=
EXTT8=
EXTT9=
EXTT10=
PLAYORDER=
